<?xml version="1.0" encoding="utf-8"?>
<!-- Generator: Adobe Illustrator 18.0.0, SVG Export Plug-In . SVG Version: 6.00 Build 0)  -->
<!DOCTYPE svg PUBLIC "-//W3C//DTD SVG 1.1//EN" "http://www.w3.org/Graphics/SVG/1.1/DTD/svg11.dtd">
<svg version="1.1" id="Layer_1" xmlns="http://www.w3.org/2000/svg" xmlns:xlink="http://www.w3.org/1999/xlink" x="0px" y="0px"
	 viewBox="-31 -36 31 36" enable-background="new -31 -36 31 36" xml:space="preserve">
<g>
	<polygon points="-16.8,-28.8 -23,-35.8 -23,-34.1 -18.9,-28.8 	"/>
	<polygon points="-31,-8 -24.5,0 -24.5,-28 -31,-36 	"/>
	<polygon points="-20.7,-28.8 -25.5,-35.1 -25.5,-33.9 -21.5,-28.8 	"/>
	<polygon points="-12.5,-28.8 -17.4,-35.1 -17.4,-33.9 -13.3,-28.8 	"/>
	<polygon points="-8.6,-28.8 -14.9,-35.8 -14.9,-34.1 -10.7,-28.8 	"/>
	<polygon points="-4.3,-28.8 -9.2,-35.1 -9.2,-33.9 -5.2,-28.8 	"/>
	<polygon points="-0.5,-28.8 -6.7,-35.8 -6.7,-34.1 -2.6,-28.8 	"/>
	<polygon points="-11.5,-33.9 -7.4,-28.8 -6.6,-28.8 -11.5,-35.1 	"/>
	<polygon points="-27.8,-33.9 -23.7,-28.8 -22.9,-28.8 -27.8,-35.1 	"/>
	<rect x="-6.5" y="-28.2" width="6.5" height="28.2"/>
	<rect x="-14.7" y="-28.2" width="6.5" height="28.2"/>
	<rect x="-22.8" y="-28.2" width="6.5" height="28.2"/>
	<polygon points="-19.6,-33.9 -15.5,-28.8 -14.7,-28.8 -19.6,-35.1 	"/>
</g>
</svg>
