<?xml version="1.0" encoding="utf-8"?>
<!-- Generator: Adobe Illustrator 19.0.0, SVG Export Plug-In . SVG Version: 6.00 Build 0)  -->
<!DOCTYPE svg PUBLIC "-//W3C//DTD SVG 1.1//EN" "http://www.w3.org/Graphics/SVG/1.1/DTD/svg11.dtd">
<svg version="1.1" id="Layer_1" xmlns="http://www.w3.org/2000/svg" xmlns:xlink="http://www.w3.org/1999/xlink" x="0px" y="0px"
	 viewBox="31.3 14.4 40 40" enable-background="new 31.3 14.4 40 40" xml:space="preserve">
<g>
	<circle cx="32.5" cy="34.4" r="1.2"/>
	<path d="M70,36.5c-0.6-0.1-1.2,0.3-1.3,0.9c-0.6,3.3-2,6.4-4.3,8.9c-1.1-0.7-2.3-1.3-3.8-1.8c-0.1,0-0.1,0-0.2-0.1
		c1-2.7,1.5-5.7,1.6-8.9h0.4H67c0.6,0,1.1-0.5,1.1-1.1c0-0.6-0.5-1.1-1.1-1.1h-4.4h-0.4c-0.1-3.2-0.7-6.4-1.7-9.1
		c0.1,0,0.1,0,0.2-0.1c1.4-0.5,2.6-1.1,3.7-1.7c2.3,2.6,3.9,5.7,4.4,9.1c0.1,0.5,0.6,0.9,1.1,0.9c0.1,0,0.1,0,0.2,0
		c0.6-0.1,1-0.7,0.9-1.3c-0.7-4.2-2.6-8-5.7-11l0,0c-3.7-3.7-8.6-5.7-13.9-5.8v0c0,0-0.1,0-0.1,0c0,0-0.1,0-0.1,0v0
		c-5.2,0-10.2,2.1-13.9,5.8l0,0c-3,3-5,6.8-5.7,11c-0.1,0.6,0.3,1.2,0.9,1.3c0.1,0,0.1,0,0.2,0c0.5,0,1-0.4,1.1-0.9
		c0.6-3.4,2.1-6.6,4.4-9.1c1.1,0.7,2.3,1.3,3.7,1.7c0.1,0,0.1,0,0.2,0.1c-1,2.8-1.6,5.9-1.7,9.1h-0.4h-4.4c-0.6,0-1.1,0.5-1.1,1.1
		c0,0.6,0.5,1.1,1.1,1.1h4.4h0.4c0.1,3.1,0.7,6.2,1.6,8.9c-0.1,0-0.1,0-0.2,0.1c-1.4,0.5-2.7,1.1-3.8,1.8c-2.2-2.5-3.7-5.5-4.3-8.9
		c-0.1-0.6-0.7-1-1.3-0.9c-0.6,0.1-1,0.7-0.9,1.3c0.7,4.1,2.6,7.8,5.5,10.7l0,0c3.7,3.8,8.7,5.9,14.1,6v0c0,0,0.1,0,0.1,0
		c0,0,0.1,0,0.1,0v0c5.3,0,10.3-2.2,14.1-6l0,0c2.9-2.9,4.8-6.7,5.5-10.7C71,37.2,70.6,36.6,70,36.5z M62.7,20.9
		c-0.8,0.5-1.7,0.9-2.8,1.2c-0.1,0-0.2,0.1-0.3,0.1c-0.9-2-2.1-3.6-3.3-4.8C58.6,18.1,60.8,19.2,62.7,20.9z M50,33.3h-7.4
		c0.1-3,0.7-6,1.6-8.5c1.8,0.4,3.8,0.7,5.8,0.8V33.3z M50,35.5V43c-2,0.1-4,0.3-5.8,0.8c-0.9-2.5-1.4-5.3-1.5-8.3L50,35.5L50,35.5z
		 M52.6,35.5H60c-0.1,2.9-0.6,5.8-1.5,8.3c-1.8-0.4-3.8-0.7-5.8-0.8V35.5z M52.6,33.3v-7.7c2-0.1,3.9-0.3,5.8-0.8
		c1,2.6,1.5,5.5,1.6,8.5H52.6z M57.4,22.8c-1.5,0.3-3.2,0.5-4.9,0.6v-6C54.4,18.3,56.1,20.2,57.4,22.8z M50,17.4v6
		c-1.7-0.1-3.3-0.3-4.9-0.6C46.5,20.2,48.2,18.3,50,17.4z M39.9,20.9c1.9-1.6,4.1-2.8,6.4-3.5c-1.3,1.2-2.4,2.9-3.3,4.8
		c-0.1,0-0.2-0.1-0.3-0.1C41.6,21.7,40.7,21.3,39.9,20.9z M39.7,47.9c0.8-0.5,1.8-0.9,2.9-1.3c0.1,0,0.2-0.1,0.3-0.1
		c1,2.1,2.1,3.8,3.5,5.1C43.9,50.8,41.6,49.6,39.7,47.9z M45,45.8c1.6-0.4,3.3-0.6,5-0.6v6.3C48.1,50.5,46.4,48.6,45,45.8z
		 M52.6,51.5v-6.3c1.7,0.1,3.4,0.3,5,0.6C56.2,48.6,54.5,50.5,52.6,51.5z M56.2,51.5c1.3-1.3,2.5-3,3.5-5.1c0.1,0,0.2,0.1,0.3,0.1
		c1.1,0.4,2,0.8,2.9,1.3C61,49.6,58.7,50.8,56.2,51.5z"/>
	<circle cx="70.1" cy="34.4" r="1.2"/>
</g>
</svg>
