<?xml version="1.0" encoding="utf-8"?>
<!-- Generator: Adobe Illustrator 19.0.0, SVG Export Plug-In . SVG Version: 6.00 Build 0)  -->
<!DOCTYPE svg PUBLIC "-//W3C//DTD SVG 1.1//EN" "http://www.w3.org/Graphics/SVG/1.1/DTD/svg11.dtd">
<svg version="1.1" id="Layer_1" xmlns="http://www.w3.org/2000/svg" xmlns:xlink="http://www.w3.org/1999/xlink" x="0px" y="0px"
	 viewBox="37.5 13.7 30.6 40" enable-background="new 37.5 13.7 30.6 40" xml:space="preserve">
<g>
	<path d="M67.9,28.2c0,0,0.1,0,0.2,0V18c0-4.3-14.7-4.3-15.3-4.3s-15.3,0-15.3,4.3v10.1c0.1,0,0.1,0,0.2,0.1
		C38.3,28.5,53.2,33.4,67.9,28.2z M39.5,17.9c0.1-0.1,0.2-0.2,0.4-0.3c0.1-0.1,0.3-0.1,0.4-0.2c0.1-0.1,0.3-0.1,0.5-0.2
		c1.2-0.4,4.9-1.6,11.9-1.6c6.7,0,10.4,1,11.6,1.4c1.3,0.4,1.7,0.8,1.7,0.9c0,0,0,0-0.1,0.1c0,0-0.1,0.1-0.2,0.1l0,0
		c-0.1,0-0.2,0.1-0.3,0.2l-0.1,0c-0.1,0-0.2,0.1-0.4,0.1l-0.1,0c-0.1,0-0.3,0.1-0.4,0.2l-0.1,0c-0.2,0-0.3,0.1-0.5,0.2l-0.2,0
		c-0.2,0-0.4,0.1-0.6,0.1l-0.3,0c-0.2,0-0.4,0.1-0.7,0.1c-0.1,0-0.3,0-0.5,0.1l-0.4,0.1c-0.1,0-0.3,0-0.4,0.1h-0.1
		c-0.2,0-0.3,0-0.5,0.1c-0.2,0-0.4,0-0.6,0.1c-0.2,0-0.4,0-0.6,0.1c-0.2,0-0.4,0-0.6,0c-0.2,0-0.4,0-0.7,0c-0.2,0-0.4,0-0.6,0
		c-0.3,0-0.5,0-0.8,0l-0.6,0c-0.3,0-0.6,0-0.9,0h-0.5c-0.5,0-1,0-1.6,0s-1,0-1.5,0h-0.5c-0.3,0-0.6,0-0.9,0l-0.6,0
		c-0.3,0-0.5,0-0.8,0c-0.2,0-0.4,0-0.6,0c-0.2,0-0.4,0-0.7,0c-0.2,0-0.4,0-0.6,0c-0.2,0-0.4,0-0.6-0.1c-0.2,0-0.4,0-0.6-0.1
		c-0.2,0-0.3,0-0.5-0.1l-0.3,0.1c-0.1,0-0.3,0-0.4,0l-0.4-0.1c-0.2,0-0.4,0-0.5-0.1c-0.2,0-0.4-0.1-0.7-0.1l-0.3,0
		c-0.2,0-0.4-0.1-0.6-0.1l-0.2-0.1c-0.2,0-0.4-0.1-0.5-0.2l-0.2,0c-0.1,0-0.3-0.1-0.4-0.1l-0.1,0c-0.1,0-0.2-0.1-0.4-0.2l0,0
		c-0.1,0-0.2-0.1-0.3-0.2l0,0c-0.1,0-0.1-0.1-0.2-0.2c0,0-0.1-0.1-0.1-0.1C39.4,18,39.4,18,39.5,17.9z"/>
	<path d="M68,39.4c0,0,0.1,0,0.1,0v-9.2c-5.1,1.7-10.2,2.3-14.8,2.3c-7.6,0-13.7-1.6-15.8-2.3v9.3C40.3,40.5,54.4,44.7,68,39.4z"/>
	<path d="M37.5,41.5v7.9c0,4.3,14.7,4.3,15.3,4.3s15.3,0,15.3-4.3v-8C63,43.3,57.9,44,53.3,44C46.1,44,40.1,42.4,37.5,41.5z"/>
</g>
</svg>
