<?xml version="1.0" encoding="utf-8"?>
<!-- Generator: Adobe Illustrator 19.0.0, SVG Export Plug-In . SVG Version: 6.00 Build 0)  -->
<!DOCTYPE svg PUBLIC "-//W3C//DTD SVG 1.1//EN" "http://www.w3.org/Graphics/SVG/1.1/DTD/svg11.dtd">
<svg version="1.1" id="Layer_1" xmlns="http://www.w3.org/2000/svg" xmlns:xlink="http://www.w3.org/1999/xlink" x="0px" y="0px"
	 viewBox="31.3 15.7 40 36" enable-background="new 31.3 15.7 40 36" xml:space="preserve">
<g id="Your_Icon">
	<path d="M31.3,15.7v36h12v-36H31.3z M37.3,46.1c-1.3,0-2.4-1.1-2.4-2.4c0-1.3,1.1-2.4,2.4-2.4s2.4,1.1,2.4,2.4
		C39.7,45,38.6,46.1,37.3,46.1z M40.9,38.1h-7.2v-20h7.2V38.1z"/>
	<rect x="34.9" y="20.9" width="4.8" height="1.2"/>
	<rect x="34.9" y="25.3" width="4.8" height="1.2"/>
	<rect x="34.9" y="29.7" width="4.8" height="1.2"/>
	<rect x="34.9" y="34.1" width="4.8" height="1.2"/>
	<rect x="60.9" y="16.5" transform="matrix(-0.9127 0.4087 -0.4087 -0.9127 133.643 40.4537)" width="3.2" height="36"/>
	<path d="M50.7,15.9l-6.6,3l14.8,32.8l6.6-3L50.7,15.9z M53.1,34L48.2,23l2.9-1.3l4.9,10.9L53.1,34z M59.7,44.7c-1,0.5-2.2,0-2.6-1
		c-0.5-1,0-2.2,1-2.6c1-0.5,2.2,0,2.6,1S60.7,44.3,59.7,44.7z"/>
</g>
</svg>
