<?xml version="1.0" encoding="utf-8"?>
<!-- Generator: Adobe Illustrator 18.0.0, SVG Export Plug-In . SVG Version: 6.00 Build 0)  -->
<!DOCTYPE svg PUBLIC "-//W3C//DTD SVG 1.1//EN" "http://www.w3.org/Graphics/SVG/1.1/DTD/svg11.dtd">
<svg version="1.1" id="Layer_1" xmlns="http://www.w3.org/2000/svg" xmlns:xlink="http://www.w3.org/1999/xlink" x="0px" y="0px"
	 viewBox="-13 -18 26 36" enable-background="new -13 -18 26 36" xml:space="preserve">
<path d="M10.1-3.1H9v-7.4c0-4.2-4-7.6-9-7.6s-9,3.4-9,7.6h0v7.4h-1.2c-1.6,0-2.9,1.3-2.9,2.9v15.3c0,1.6,1.3,2.9,2.9,2.9h20.2
	c1.6,0,2.9-1.3,2.9-2.9V-0.2C13-1.8,11.7-3.1,10.1-3.1z M2.5,12.9h-5l1-5.4C-2.3,7-2.9,6.1-2.9,5c0-1.6,1.3-2.9,2.9-2.9
	c1.6,0,2.9,1.3,2.9,2.9c0,1.1-0.6,2-1.4,2.5L2.5,12.9z M5.1-3.1H-5.1v-7.4l0,0c0-2,2.3-3.7,5.1-3.7s5.1,1.7,5.1,3.7L5.1-3.1z"/>
</svg>
