<?xml version="1.0" encoding="utf-8"?>
<!-- Generator: Adobe Illustrator 18.0.0, SVG Export Plug-In . SVG Version: 6.00 Build 0)  -->
<!DOCTYPE svg PUBLIC "-//W3C//DTD SVG 1.1//EN" "http://www.w3.org/Graphics/SVG/1.1/DTD/svg11.dtd">
<svg version="1.1" id="Layer_1" xmlns="http://www.w3.org/2000/svg" xmlns:xlink="http://www.w3.org/1999/xlink" x="0px" y="0px"
	 viewBox="-18 -15.5 36 31" enable-background="new -18 -15.5 36 31" xml:space="preserve">
<g>
	<g>
		<path d="M-15.9,14.5c-1.1,0-2.1-1-2.1-2.1V-9.8c0-1.2,0.9-2.1,2.1-2.1c1.1,0,2.1,1,2.1,2.1v22.2C-13.8,13.6-14.8,14.5-15.9,14.5z"
			/>
	</g>
	<g>
		<path d="M-6.2,8.7c-1.1,0-2.1-1-2.1-2.1v-19.9c0-1.2,0.9-2.1,2.1-2.1s2.1,1,2.1,2.1V6.6C-4.2,7.7-5.1,8.7-6.2,8.7z"/>
	</g>
	<g>
		<path d="M4.8,15.5c-1.1,0-2.1-1-2.1-2.1v-22c0-1.2,0.9-2.1,2.1-2.1s2.1,1,2.1,2.1v22C6.9,14.5,6,15.5,4.8,15.5z"/>
	</g>
	<g>
		<path d="M15.9,9.1c-1.1,0-2.1-1-2.1-2.1v-20.3c0-1.2,0.9-2.1,2.1-2.1c1.1,0,2.1,1,2.1,2.1V6.9C18,8.1,17.1,9.1,15.9,9.1z"/>
	</g>
</g>
</svg>
