<?xml version="1.0" encoding="utf-8"?>
<!-- Generator: Adobe Illustrator 18.0.0, SVG Export Plug-In . SVG Version: 6.00 Build 0)  -->
<!DOCTYPE svg PUBLIC "-//W3C//DTD SVG 1.1//EN" "http://www.w3.org/Graphics/SVG/1.1/DTD/svg11.dtd">
<svg version="1.1" id="Layer_1" xmlns="http://www.w3.org/2000/svg" xmlns:xlink="http://www.w3.org/1999/xlink" x="0px" y="0px"
	 viewBox="-15.5 -18 31 36" enable-background="new -15.5 -18 31 36" xml:space="preserve">
<path d="M-13,16.5c2,1.6,4.3,2,5.1,1L5.2,0.2c2.6,0,5.1-1.1,5.7-1.9l4.3-5.7c1-1.4-0.6-5.2-4.1-7.9s-7.5-3.3-8.6-1.9l-4.3,5.7
	c-0.7,0.9-1,3.5-0.3,6.1l-13.1,17.3C-16,12.8-15,14.9-13,16.5z M4-16.1c0.2-0.2,3,0.6,5.7,2.7c2.7,2.1,4.2,4.5,4.1,4.8
	c-0.2,0.2-3-0.6-5.7-2.7C5.3-13.4,3.8-15.9,4-16.1z M-3.6,1.7C-3.6,0.8-2.8,0-1.9,0c0.9,0,1.6,0.8,1.6,1.7s-0.7,1.7-1.6,1.7
	C-2.8,3.3-3.6,2.6-3.6,1.7z"/>
</svg>
