<?xml version="1.0" encoding="utf-8"?>
<!-- Generator: Adobe Illustrator 18.0.0, SVG Export Plug-In . SVG Version: 6.00 Build 0)  -->
<!DOCTYPE svg PUBLIC "-//W3C//DTD SVG 1.1//EN" "http://www.w3.org/Graphics/SVG/1.1/DTD/svg11.dtd">
<svg version="1.1" id="Layer_1" xmlns="http://www.w3.org/2000/svg" xmlns:xlink="http://www.w3.org/1999/xlink" x="0px" y="0px"
	 width="16px" height="16px" viewBox="0 0 16 16" enable-background="new 0 0 16 16" xml:space="preserve">
<g>
	<rect x="0.5" y="0.5" fill="#FFFFFF" width="15" height="15"/>
	<g>
		<path fill="#333C4E" d="M15,1v14H1V1H15 M16,0H0v16h16V0L16,0z"/>
	</g>
</g>
<g>
	<path fill="#f06eaa" d="M4,13.5c-0.8,0-1.5-0.7-1.5-1.5V8c0-0.8,0.7-1.5,1.5-1.5h4c0.8,0,1.5,0.7,1.5,1.5v4c0,0.8-0.7,1.5-1.5,1.5
		H4z"/>
	<g>
		<path fill="#5A6982" d="M8,7c0.6,0,1,0.4,1,1v4c0,0.6-0.4,1-1,1H4c-0.6,0-1-0.4-1-1V8c0-0.6,0.4-1,1-1H8 M8,6H4C2.9,6,2,6.9,2,8v4
			c0,1.1,0.9,2,2,2h4c1.1,0,2-0.9,2-2V8C10,6.9,9.1,6,8,6L8,6z"/>
	</g>
</g>
</svg>
