<?xml version="1.0" encoding="utf-8"?>
<!-- Generator: Adobe Illustrator 18.0.0, SVG Export Plug-In . SVG Version: 6.00 Build 0)  -->
<!DOCTYPE svg PUBLIC "-//W3C//DTD SVG 1.1//EN" "http://www.w3.org/Graphics/SVG/1.1/DTD/svg11.dtd">
<svg version="1.1" id="Layer_1" xmlns="http://www.w3.org/2000/svg" xmlns:xlink="http://www.w3.org/1999/xlink" x="0px" y="0px"
	 width="16px" height="16px" viewBox="0 0 16 16" enable-background="new 0 0 16 16" xml:space="preserve">
<rect x="6" y="6" fill="#BADAF2" width="9" height="9"/>
<rect x="6" y="6" fill="none" width="4" height="4"/>
<polygon fill="none" points="6,11 6,15 15,15 15,6 11,6 11,11 "/>
<polygon fill="none" points="10,5 10,1 1,1 1,10 5,10 5,5 "/>
<polygon fill="#333C4E" points="1,10 1,1 10,1 10,5 11,5 11,0 0,0 0,11 5,11 5,10 "/>
<polygon fill="#333C4E" points="10,6 10,5 5,5 5,10 6,10 6,6 "/>
<polygon fill="#333C4E" points="11,5 11,6 15,6 15,15 6,15 6,11 5,11 5,16 16,16 16,5 "/>
<rect x="10" y="5" fill="#333C4E" width="1" height="1"/>
<rect x="5" y="10" fill="#333C4E" width="1" height="1"/>
</svg>
