<?xml version="1.0" encoding="utf-8"?>
<!-- Generator: Adobe Illustrator 18.0.0, SVG Export Plug-In . SVG Version: 6.00 Build 0)  -->
<!DOCTYPE svg PUBLIC "-//W3C//DTD SVG 1.1//EN" "http://www.w3.org/Graphics/SVG/1.1/DTD/svg11.dtd">
<svg version="1.1" id="Layer_1" xmlns="http://www.w3.org/2000/svg" xmlns:xlink="http://www.w3.org/1999/xlink" x="0px" y="0px"
	 viewBox="-15.5 -15.5 31 31" enable-background="new -15.5 -15.5 31 31" xml:space="preserve">
<path d="M11.4-2.6c-1.4-1.4-1.4-3.6,0-5c0.5-0.5,1.1-0.8,1.7-1c0.5-0.1,1-0.4,1.4-0.8c1.4-1.4,1.4-3.6,0-5c-1.4-1.4-3.6-1.4-4.9,0
	c-0.4,0.4-0.7,0.9-0.8,1.4c-0.1,0.6-0.4,1.3-0.9,1.8c-1.4,1.4-3.7,1.3-5,0l-3.3-3.4c-0.3-0.4-0.9-0.4-1.3,0L-5.4-11
	c-0.7,0.7-0.7,1.8,0,2.5C-5.2-8.3-4.9-8.1-4.5-8c0.5,0.2,1,0.5,1.3,0.9c1.4,1.4,1.4,3.6,0,5c-1.4,1.4-3.6,1.4-4.9,0
	C-8.5-2.6-8.8-3-8.9-3.6C-9-3.9-9.2-4.2-9.4-4.4c-0.7-0.7-1.9-0.6-2.5,0.1l-3.3,3.4c-0.3,0.4-0.3,0.9,0,1.3l14.6,14.9
	c0.3,0.4,0.9,0.4,1.3,0L4,11.8c0.7-0.7,1.8-0.7,2.5,0c0.2,0.2,0.4,0.6,0.5,0.9c0.1,0.5,0.4,1,0.8,1.4c1.4,1.4,3.6,1.4,4.9,0
	c1.4-1.4,1.4-3.6,0-5c-0.4-0.4-0.9-0.7-1.4-0.8c-0.3-0.1-0.6-0.2-0.9-0.5c-0.7-0.7-0.7-1.8,0-2.5l0.3-0.4l3.3-3.4
	c0.3-0.4,0.3-0.9,0-1.3L11.4-2.6z"/>
</svg>
