<?xml version="1.0" encoding="utf-8"?>
<!-- Generator: Adobe Illustrator 18.0.0, SVG Export Plug-In . SVG Version: 6.00 Build 0)  -->
<!DOCTYPE svg PUBLIC "-//W3C//DTD SVG 1.1//EN" "http://www.w3.org/Graphics/SVG/1.1/DTD/svg11.dtd">
<svg version="1.1" id="Layer_1" xmlns="http://www.w3.org/2000/svg" xmlns:xlink="http://www.w3.org/1999/xlink" x="0px" y="0px"
	 viewBox="-17.5 -12 35 24" enable-background="new -17.5 -12 35 24" xml:space="preserve">
<g>
	<path d="M17.5,0c0,0-7,12-17.5,12C-10.5,12-17.5,0-17.5,0s7-12,17.5-12C10.5-12,17.5,0,17.5,0z M8.6,0c0-4.6-3.9-8.4-8.6-8.4
		S-8.6-4.6-8.6,0c0,4.6,3.9,8.4,8.6,8.4S8.6,4.7,8.6,0z M0-3.8C-2.1-3.8-3.8-2-3.8,0c0,2.1,1.7,3.8,3.8,3.8c2.1,0,3.9-1.7,3.9-3.8
		C3.9-2,2.1-3.8,0-3.8z"/>
</g>
</svg>
