<?xml version="1.0" encoding="utf-8"?>
<!-- Generator: Adobe Illustrator 18.0.0, SVG Export Plug-In . SVG Version: 6.00 Build 0)  -->
<!DOCTYPE svg PUBLIC "-//W3C//DTD SVG 1.1//EN" "http://www.w3.org/Graphics/SVG/1.1/DTD/svg11.dtd">
<svg version="1.1" id="Layer_1" xmlns="http://www.w3.org/2000/svg" xmlns:xlink="http://www.w3.org/1999/xlink" x="0px" y="0px"
	 viewBox="20.4 3.3 31 31" enable-background="new 20.4 3.3 31 31" xml:space="preserve">
<path d="M51.4,21.4v-5.1h-2.8c-2.5,0-3.7-2.8-1.9-4.6l2-2L45,6l-2,2c-1.7,1.7-4.6,0.4-4.6-1.9V3.3h-5.1v2.8c0,2.2-3,3.5-4.6,1.9
	l-2-2l-3.6,3.6l2,2c1.7,1.7,0.5,4.6-1.9,4.6h-2.8v5.1h2.8c2.6,0,3.9,2.6,1.9,4.6l-2,2l3.6,3.6l2-2c1.6-1.6,4.6-0.5,4.6,1.9v2.8h5.1
	l0-2.8c0-2.5,2.7-3.8,4.6-1.9l2,2l3.6-3.6l-2-2c-1.8-1.8-0.8-4.6,1.9-4.6L51.4,21.4L51.4,21.4z M35.9,25c-3.4,0-6.1-2.8-6.1-6.1
	c0-3.4,2.8-6.1,6.1-6.1c3.4,0,6.1,2.8,6.1,6.1C42,22.2,39.3,25,35.9,25z"/>
</svg>
