<?xml version="1.0" encoding="utf-8"?>
<!-- Generator: Adobe Illustrator 17.0.2, SVG Export Plug-In . SVG Version: 6.00 Build 0)  -->
<!DOCTYPE svg PUBLIC "-//W3C//DTD SVG 1.1//EN" "http://www.w3.org/Graphics/SVG/1.1/DTD/svg11.dtd">
<svg version="1.1" id="Layer_1" xmlns="http://www.w3.org/2000/svg" xmlns:xlink="http://www.w3.org/1999/xlink" x="0px" y="0px"
	 width="110px" height="30px" viewBox="0 0 110 30" enable-background="new 0 0 110 30" xml:space="preserve">
<linearGradient id="SVGID_1_" gradientUnits="userSpaceOnUse" x1="54.6794" y1="13.1275" x2="54.6794" y2="31.5581">
	<stop  offset="0.2883" style="stop-color:#4D92CE"/>
	<stop  offset="0.4296" style="stop-color:#4B8EC8"/>
	<stop  offset="0.6355" style="stop-color:#4686BC"/>
	<stop  offset="0.8797" style="stop-color:#3F78A9"/>
	<stop  offset="1" style="stop-color:#396F9D"/>
</linearGradient>
<path fill="url(#SVGID_1_)" d="M107.572,5.291c0.722,0,1.318,0.051,1.787,0.153l-0.351,3.344c-0.51-0.122-1.039-0.183-1.588-0.183
	c-1.436,0-2.599,0.468-3.49,1.405c-0.891,0.937-1.336,2.153-1.336,3.65v8.827h-3.588V5.597h2.81l0.473,2.978h0.183
	c0.559-1.008,1.29-1.807,2.191-2.398C105.563,5.587,106.534,5.291,107.572,5.291 M33.623,5.597h3.91l3.436,9.575
	c0.519,1.364,0.865,2.647,1.038,3.848h0.122c0.092-0.56,0.259-1.239,0.504-2.039c0.245-0.799,1.537-4.594,3.879-11.384h3.879
	l-7.223,19.135C41.854,28.244,39.665,30,36.601,30c-0.794,0-1.568-0.086-2.321-0.26v-2.841c0.54,0.123,1.155,0.184,1.848,0.184
	c1.731,0,2.947-1.003,3.65-3.008l0.626-1.588L33.623,5.597z M61.647,22.487l-0.718-2.352h-0.122c-0.815,1.028-1.634,1.728-2.458,2.1
	c-0.825,0.372-1.884,0.557-3.177,0.557c-1.659,0-2.954-0.447-3.886-1.344c-0.931-0.896-1.397-2.163-1.397-3.802
	c0-1.741,0.646-3.054,1.94-3.941c1.293-0.886,3.263-1.369,5.909-1.451l2.917-0.092v-0.901c0-1.079-0.252-1.886-0.756-2.42
	c-0.504-0.535-1.285-0.802-2.344-0.802c-0.865,0-1.695,0.127-2.489,0.382c-0.794,0.254-1.558,0.555-2.291,0.901l-1.16-2.565
	c0.916-0.479,1.919-0.842,3.009-1.092c1.089-0.249,2.117-0.374,3.085-0.374c2.147,0,3.769,0.469,4.864,1.405
	c1.095,0.937,1.642,2.408,1.642,4.414v11.377H61.647z M56.302,20.043c1.303,0,2.349-0.364,3.138-1.092
	c0.789-0.728,1.184-1.749,1.184-3.062v-1.466l-2.169,0.092c-1.689,0.061-2.919,0.343-3.687,0.847
	c-0.769,0.504-1.153,1.275-1.153,2.314c0,0.753,0.224,1.336,0.672,1.748C54.734,19.837,55.406,20.043,56.302,20.043 M81.608,5.597
	v1.97l-2.887,0.534c0.265,0.357,0.484,0.794,0.657,1.313c0.173,0.519,0.26,1.069,0.26,1.649c0,1.741-0.601,3.111-1.802,4.109
	c-1.201,0.998-2.856,1.496-4.963,1.496c-0.54,0-1.028-0.04-1.466-0.122c-0.774,0.479-1.161,1.038-1.161,1.679
	c0,0.387,0.181,0.678,0.542,0.871c0.361,0.194,1.025,0.29,1.993,0.29h2.947c1.863,0,3.278,0.397,4.246,1.191
	c0.967,0.794,1.45,1.939,1.45,3.436c0,1.914-0.789,3.391-2.367,4.429C77.48,29.481,75.199,30,72.216,30
	c-2.301,0-4.057-0.407-5.269-1.222c-1.212-0.815-1.817-1.975-1.817-3.482c0-1.038,0.328-1.911,0.985-2.619
	c0.657-0.707,1.576-1.198,2.757-1.474c-0.479-0.203-0.873-0.531-1.184-0.985c-0.311-0.453-0.466-0.929-0.466-1.428
	c0-0.631,0.178-1.166,0.534-1.603c0.357-0.438,0.886-0.87,1.588-1.298c-0.876-0.377-1.586-0.991-2.13-1.84
	c-0.545-0.85-0.817-1.845-0.817-2.986c0-1.832,0.577-3.252,1.733-4.26c1.155-1.008,2.802-1.512,4.94-1.512
	c0.479,0,0.98,0.033,1.504,0.1c0.525,0.066,0.918,0.135,1.183,0.206H81.608z M68.337,25.113c0,0.774,0.349,1.369,1.046,1.787
	c0.697,0.418,1.678,0.626,2.94,0.626c1.954,0,3.41-0.28,4.367-0.84c0.957-0.56,1.435-1.304,1.435-2.23
	c0-0.733-0.262-1.255-0.786-1.565c-0.525-0.311-1.499-0.466-2.924-0.466h-2.718c-1.029,0-1.845,0.241-2.451,0.725
	C68.64,23.634,68.337,24.288,68.337,25.113 M69.88,11.063c0,1.059,0.272,1.874,0.817,2.444c0.545,0.57,1.326,0.855,2.344,0.855
	c2.077,0,3.115-1.109,3.115-3.328c0-1.1-0.257-1.947-0.771-2.543c-0.514-0.596-1.296-0.894-2.344-0.894
	c-1.039,0-1.825,0.296-2.36,0.886C70.147,9.074,69.88,9.934,69.88,11.063 M90.238,22.792c-2.627,0-4.68-0.766-6.162-2.298
	c-1.481-1.532-2.223-3.642-2.223-6.33c0-2.759,0.688-4.927,2.062-6.505c1.374-1.578,3.263-2.367,5.666-2.367
	c2.229,0,3.991,0.677,5.284,2.031c1.293,1.354,1.939,3.217,1.939,5.589v1.939H85.55c0.051,1.639,0.494,2.899,1.328,3.78
	c0.835,0.88,2.011,1.321,3.528,1.321c0.997,0,1.926-0.094,2.787-0.283c0.861-0.188,1.784-0.501,2.771-0.939v2.917
	c-0.875,0.417-1.761,0.713-2.657,0.885C92.411,22.705,91.388,22.792,90.238,22.792 M89.581,8.009c-1.141,0-2.054,0.362-2.741,1.084
	c-0.687,0.723-1.097,1.777-1.229,3.161h7.666c-0.02-1.395-0.357-2.451-1.008-3.169C91.617,8.369,90.721,8.009,89.581,8.009
	 M15.667,0l-1.535,4.574l3.697-0.004L19.424,0H15.667z M12.185,10.377l-1.158,3.451l-0.017-0.008c-0.093,0.261-0.2,0.6-0.322,1.012
	c-0.148,0.473-0.3,1.007-0.458,1.607c-0.259,0.986-0.432,1.729-0.518,2.238c-0.087-0.509-0.26-1.253-0.519-2.238
	c-0.275-1.043-0.535-1.896-0.778-2.558L3.757,0H0l7.778,22.297l0.01,0.029h0.001h3.848h0l0.007-0.022l2.811-8.057L12.185,10.377z"/>
<path fill="#0F4D8E" d="M29.169,15.484c-0.75,2.21-3.149,3.393-5.359,2.643c-2.21-0.75-3.394-3.149-2.643-5.36
	c0.751-2.21,3.149-3.393,5.36-2.642C28.736,10.875,29.919,13.274,29.169,15.484z M28.035,5.679
	c-4.665-1.584-9.731,0.915-11.314,5.58c-1.583,4.665,0.915,9.731,5.58,11.315c4.665,1.583,9.731-0.915,11.315-5.581
	C35.199,12.328,32.701,7.263,28.035,5.679z"/>
<polygon fill="#0F4D8E" points="10.915,5.786 14.236,5.781 18.598,5.777 15.9,8.655 14.827,12.494 12.58,8.659 "/>
</svg>
